<?xml version="1.0" encoding="utf-8"?>
<!-- Generator: Adobe Illustrator 15.0.0, SVG Export Plug-In . SVG Version: 6.00 Build 0)  -->
<!DOCTYPE svg PUBLIC "-//W3C//DTD SVG 1.1//EN" "http://www.w3.org/Graphics/SVG/1.1/DTD/svg11.dtd">
<svg version="1.1" id="Capa_1" xmlns="http://www.w3.org/2000/svg" xmlns:xlink="http://www.w3.org/1999/xlink" x="0px" y="0px"
	 width="600px" height="600px" viewBox="0 0 600 600" enable-background="new 0 0 600 600" xml:space="preserve">
<g>
	<circle fill="#3C556B" cx="300" cy="300" r="243.811"/>
	<path opacity="0.37" fill="#2D465C" d="M543.811,300c0-10.555-0.672-20.953-1.973-31.154l-121.63-119.409l-43.018,43.018
		l-36.666-43.018L168.452,321.509l206.079,210.681C472.726,500.693,543.811,408.653,543.811,300z"/>
	<g>
		<rect x="377.19" y="149.437" fill="#FFFFFF" width="43.018" height="43.018"/>
		<polygon fill="#FFFFFF" points="248.136,278.491 211.471,278.491 211.471,235.473 254.489,235.473 254.489,278.491 
			291.153,278.491 291.153,321.509 254.489,321.509 254.489,364.527 211.471,364.527 211.471,321.509 248.136,321.509 		"/>
		<polygon fill="#FFFFFF" points="291.153,321.509 334.172,321.509 334.172,364.527 297.507,364.527 297.507,407.546 
			254.489,407.546 254.489,364.527 291.153,364.527 		"/>
		<polygon fill="#FFFFFF" points="334.172,364.527 377.19,364.527 377.19,407.546 340.524,407.546 340.524,450.563 297.507,450.563 
			297.507,407.546 334.172,407.546 		"/>
		<rect x="377.19" y="407.546" fill="#FFFFFF" width="43.018" height="43.018"/>
		<polygon fill="#FFFFFF" points="297.507,192.454 297.507,149.437 340.524,149.437 340.524,192.454 377.19,192.454 377.19,235.473 
			334.172,235.473 334.172,192.454 		"/>
		<polygon fill="#FFFFFF" points="254.489,235.473 254.489,192.454 297.507,192.454 297.507,235.473 334.172,235.473 
			334.172,278.491 291.153,278.491 291.153,235.473 		"/>
		<rect x="168.452" y="278.491" fill="#FFFFFF" width="43.019" height="43.018"/>
	</g>
</g>
</svg>
