<?xml version="1.0" encoding="iso-8859-1"?>
<!-- Generator: Adobe Illustrator 18.0.0, SVG Export Plug-In . SVG Version: 6.00 Build 0)  -->
<!DOCTYPE svg PUBLIC "-//W3C//DTD SVG 1.1//EN" "http://www.w3.org/Graphics/SVG/1.1/DTD/svg11.dtd">
<svg version="1.1" id="Capa_1" xmlns="http://www.w3.org/2000/svg" xmlns:xlink="http://www.w3.org/1999/xlink" x="0px" y="0px"
	 viewBox="0 0 296.199 296.199" style="enable-background:new 0 0 296.199 296.199;" xml:space="preserve">
<g>
	<path d="M190.112,74.625V51.75c0-11.063-8.969-20.032-20.032-20.032H20.032C8.969,31.718,0,40.687,0,51.75v76.884
		c0,11.064,8.969,20.032,20.032,20.032h14.743v-39.009c0-19.316,15.716-35.032,35.032-35.032H190.112z"/>
	<path d="M239.887,132.533v-22.875c0-11.064-8.969-20.032-20.032-20.032H69.808c-11.063,0-20.032,8.969-20.032,20.032v76.883
		c0,11.063,8.969,20.032,20.032,20.032h21.279v-39.008c0-19.317,15.716-35.032,35.032-35.032H239.887z"/>
	<path d="M276.167,147.533H126.119c-11.063,0-20.032,8.969-20.032,20.032v76.884c0,11.063,8.969,20.032,20.032,20.032h150.048
		c11.064,0,20.032-8.969,20.032-20.032v-76.884C296.199,156.501,287.23,147.533,276.167,147.533z"/>
</g>
<g>
</g>
<g>
</g>
<g>
</g>
<g>
</g>
<g>
</g>
<g>
</g>
<g>
</g>
<g>
</g>
<g>
</g>
<g>
</g>
<g>
</g>
<g>
</g>
<g>
</g>
<g>
</g>
<g>
</g>
</svg>
